<?xml version="1.0" encoding="UTF-8" standalone="no"?>
<!DOCTYPE svg PUBLIC "-//W3C//DTD SVG 1.1//EN"
 "http://www.w3.org/Graphics/SVG/1.1/DTD/svg11.dtd">
<!-- Generated by graphviz version 2.43.0 (0)
 -->
<!-- Title: model Pages: 1 -->
<svg width="186pt" height="864pt"
 viewBox="0.00 0.00 186.04 864.00" xmlns="http://www.w3.org/2000/svg" xmlns:xlink="http://www.w3.org/1999/xlink">
<g id="graph0" class="graph" transform="scale(0.89 0.89) rotate(0) translate(4 962)">
<title>model</title>
<polygon fill="white" stroke="transparent" points="-4,4 -4,-962 204,-962 204,4 -4,4"/>
<!-- 0 -->
<g id="node1" class="node">
<title>0</title>
<polygon fill="lightyellow" stroke="transparent" points="174,-958 26,-958 26,-926 174,-926 174,-958"/>
<polygon fill="none" stroke="black" points="26,-926 26,-958 96,-958 96,-926 26,-926"/>
<text text-anchor="start" x="31" y="-945" font-family="Linux libertine" font-size="10.00">input&#45;tensor</text>
<text text-anchor="start" x="42.5" y="-934" font-family="Linux libertine" font-size="10.00">depth:0</text>
<polygon fill="none" stroke="black" points="96,-926 96,-958 174,-958 174,-926 96,-926"/>
<text text-anchor="start" x="101" y="-939.5" font-family="Linux libertine" font-size="10.00">(64, 1, 28, 28)</text>
</g>
<!-- 1 -->
<g id="node2" class="node">
<title>1</title>
<polygon fill="#c1ffc1" stroke="transparent" points="191,-890 9,-890 9,-848 191,-848 191,-890"/>
<polygon fill="none" stroke="black" points="9,-848 9,-890 56,-890 56,-848 9,-848"/>
<text text-anchor="start" x="14" y="-872" font-family="Linux libertine" font-size="10.00">Conv2d</text>
<text text-anchor="start" x="14" y="-861" font-family="Linux libertine" font-size="10.00">depth:1</text>
<polygon fill="none" stroke="black" points="56,-869 56,-890 104,-890 104,-869 56,-869"/>
<text text-anchor="start" x="66" y="-877" font-family="Linux libertine" font-size="10.00">input:</text>
<polygon fill="none" stroke="black" points="104,-869 104,-890 191,-890 191,-869 104,-869"/>
<text text-anchor="start" x="112" y="-877" font-family="Linux libertine" font-size="10.00">(64, 1, 28, 28) </text>
<polygon fill="none" stroke="black" points="56,-848 56,-869 104,-869 104,-848 56,-848"/>
<text text-anchor="start" x="61" y="-856" font-family="Linux libertine" font-size="10.00">output: </text>
<polygon fill="none" stroke="black" points="104,-848 104,-869 191,-869 191,-848 104,-848"/>
<text text-anchor="start" x="109" y="-856" font-family="Linux libertine" font-size="10.00">(64, 32, 26, 26) </text>
</g>
<!-- 0&#45;&gt;1 -->
<g id="edge1" class="edge">
<title>0&#45;&gt;1</title>
<path fill="none" stroke="black" d="M100,-925.94C100,-918.45 100,-909.12 100,-900.24"/>
<polygon fill="black" stroke="black" points="103.5,-900.16 100,-890.16 96.5,-900.16 103.5,-900.16"/>
</g>
<!-- 2 -->
<g id="node3" class="node">
<title>2</title>
<polygon fill="aliceblue" stroke="transparent" points="191,-812 9,-812 9,-770 191,-770 191,-812"/>
<polygon fill="none" stroke="black" points="9,-770 9,-812 56,-812 56,-770 9,-770"/>
<text text-anchor="start" x="23" y="-794" font-family="Linux libertine" font-size="10.00">relu</text>
<text text-anchor="start" x="14" y="-783" font-family="Linux libertine" font-size="10.00">depth:1</text>
<polygon fill="none" stroke="black" points="56,-791 56,-812 104,-812 104,-791 56,-791"/>
<text text-anchor="start" x="66" y="-799" font-family="Linux libertine" font-size="10.00">input:</text>
<polygon fill="none" stroke="black" points="104,-791 104,-812 191,-812 191,-791 104,-791"/>
<text text-anchor="start" x="109" y="-799" font-family="Linux libertine" font-size="10.00">(64, 32, 26, 26) </text>
<polygon fill="none" stroke="black" points="56,-770 56,-791 104,-791 104,-770 56,-770"/>
<text text-anchor="start" x="61" y="-778" font-family="Linux libertine" font-size="10.00">output: </text>
<polygon fill="none" stroke="black" points="104,-770 104,-791 191,-791 191,-770 104,-770"/>
<text text-anchor="start" x="109" y="-778" font-family="Linux libertine" font-size="10.00">(64, 32, 26, 26) </text>
</g>
<!-- 1&#45;&gt;2 -->
<g id="edge2" class="edge">
<title>1&#45;&gt;2</title>
<path fill="none" stroke="black" d="M100,-847.63C100,-839.82 100,-830.73 100,-822.18"/>
<polygon fill="black" stroke="black" points="103.5,-822.16 100,-812.16 96.5,-822.16 103.5,-822.16"/>
</g>
<!-- 3 -->
<g id="node4" class="node">
<title>3</title>
<polygon fill="#c1ffc1" stroke="transparent" points="191,-734 9,-734 9,-692 191,-692 191,-734"/>
<polygon fill="none" stroke="black" points="9,-692 9,-734 56,-734 56,-692 9,-692"/>
<text text-anchor="start" x="14" y="-716" font-family="Linux libertine" font-size="10.00">Conv2d</text>
<text text-anchor="start" x="14" y="-705" font-family="Linux libertine" font-size="10.00">depth:1</text>
<polygon fill="none" stroke="black" points="56,-713 56,-734 104,-734 104,-713 56,-713"/>
<text text-anchor="start" x="66" y="-721" font-family="Linux libertine" font-size="10.00">input:</text>
<polygon fill="none" stroke="black" points="104,-713 104,-734 191,-734 191,-713 104,-713"/>
<text text-anchor="start" x="109" y="-721" font-family="Linux libertine" font-size="10.00">(64, 32, 26, 26) </text>
<polygon fill="none" stroke="black" points="56,-692 56,-713 104,-713 104,-692 56,-692"/>
<text text-anchor="start" x="61" y="-700" font-family="Linux libertine" font-size="10.00">output: </text>
<polygon fill="none" stroke="black" points="104,-692 104,-713 191,-713 191,-692 104,-692"/>
<text text-anchor="start" x="109" y="-700" font-family="Linux libertine" font-size="10.00">(64, 64, 24, 24) </text>
</g>
<!-- 2&#45;&gt;3 -->
<g id="edge3" class="edge">
<title>2&#45;&gt;3</title>
<path fill="none" stroke="black" d="M100,-769.63C100,-761.82 100,-752.73 100,-744.18"/>
<polygon fill="black" stroke="black" points="103.5,-744.16 100,-734.16 96.5,-744.16 103.5,-744.16"/>
</g>
<!-- 4 -->
<g id="node5" class="node">
<title>4</title>
<polygon fill="aliceblue" stroke="transparent" points="191,-656 9,-656 9,-614 191,-614 191,-656"/>
<polygon fill="none" stroke="black" points="9,-614 9,-656 56,-656 56,-614 9,-614"/>
<text text-anchor="start" x="23" y="-638" font-family="Linux libertine" font-size="10.00">relu</text>
<text text-anchor="start" x="14" y="-627" font-family="Linux libertine" font-size="10.00">depth:1</text>
<polygon fill="none" stroke="black" points="56,-635 56,-656 104,-656 104,-635 56,-635"/>
<text text-anchor="start" x="66" y="-643" font-family="Linux libertine" font-size="10.00">input:</text>
<polygon fill="none" stroke="black" points="104,-635 104,-656 191,-656 191,-635 104,-635"/>
<text text-anchor="start" x="109" y="-643" font-family="Linux libertine" font-size="10.00">(64, 64, 24, 24) </text>
<polygon fill="none" stroke="black" points="56,-614 56,-635 104,-635 104,-614 56,-614"/>
<text text-anchor="start" x="61" y="-622" font-family="Linux libertine" font-size="10.00">output: </text>
<polygon fill="none" stroke="black" points="104,-614 104,-635 191,-635 191,-614 104,-614"/>
<text text-anchor="start" x="109" y="-622" font-family="Linux libertine" font-size="10.00">(64, 64, 24, 24) </text>
</g>
<!-- 3&#45;&gt;4 -->
<g id="edge4" class="edge">
<title>3&#45;&gt;4</title>
<path fill="none" stroke="black" d="M100,-691.63C100,-683.82 100,-674.73 100,-666.18"/>
<polygon fill="black" stroke="black" points="103.5,-666.16 100,-656.16 96.5,-666.16 103.5,-666.16"/>
</g>
<!-- 5 -->
<g id="node6" class="node">
<title>5</title>
<polygon fill="#c1ffc1" stroke="transparent" points="200,-578 0,-578 0,-536 200,-536 200,-578"/>
<polygon fill="none" stroke="black" points="0,-536 0,-578 65,-578 65,-536 0,-536"/>
<text text-anchor="start" x="5" y="-560" font-family="Linux libertine" font-size="10.00">MaxPool2d</text>
<text text-anchor="start" x="14" y="-549" font-family="Linux libertine" font-size="10.00">depth:1</text>
<polygon fill="none" stroke="black" points="65,-557 65,-578 113,-578 113,-557 65,-557"/>
<text text-anchor="start" x="75" y="-565" font-family="Linux libertine" font-size="10.00">input:</text>
<polygon fill="none" stroke="black" points="113,-557 113,-578 200,-578 200,-557 113,-557"/>
<text text-anchor="start" x="118" y="-565" font-family="Linux libertine" font-size="10.00">(64, 64, 24, 24) </text>
<polygon fill="none" stroke="black" points="65,-536 65,-557 113,-557 113,-536 65,-536"/>
<text text-anchor="start" x="70" y="-544" font-family="Linux libertine" font-size="10.00">output: </text>
<polygon fill="none" stroke="black" points="113,-536 113,-557 200,-557 200,-536 113,-536"/>
<text text-anchor="start" x="118" y="-544" font-family="Linux libertine" font-size="10.00">(64, 64, 12, 12) </text>
</g>
<!-- 4&#45;&gt;5 -->
<g id="edge5" class="edge">
<title>4&#45;&gt;5</title>
<path fill="none" stroke="black" d="M100,-613.63C100,-605.82 100,-596.73 100,-588.18"/>
<polygon fill="black" stroke="black" points="103.5,-588.16 100,-578.16 96.5,-588.16 103.5,-588.16"/>
</g>
<!-- 6 -->
<g id="node7" class="node">
<title>6</title>
<polygon fill="aliceblue" stroke="transparent" points="191,-500 9,-500 9,-458 191,-458 191,-500"/>
<polygon fill="none" stroke="black" points="9,-458 9,-500 56,-500 56,-458 9,-458"/>
<text text-anchor="start" x="16.5" y="-482" font-family="Linux libertine" font-size="10.00">flatten</text>
<text text-anchor="start" x="14" y="-471" font-family="Linux libertine" font-size="10.00">depth:1</text>
<polygon fill="none" stroke="black" points="56,-479 56,-500 104,-500 104,-479 56,-479"/>
<text text-anchor="start" x="66" y="-487" font-family="Linux libertine" font-size="10.00">input:</text>
<polygon fill="none" stroke="black" points="104,-479 104,-500 191,-500 191,-479 104,-479"/>
<text text-anchor="start" x="109" y="-487" font-family="Linux libertine" font-size="10.00">(64, 64, 12, 12) </text>
<polygon fill="none" stroke="black" points="56,-458 56,-479 104,-479 104,-458 56,-458"/>
<text text-anchor="start" x="61" y="-466" font-family="Linux libertine" font-size="10.00">output: </text>
<polygon fill="none" stroke="black" points="104,-458 104,-479 191,-479 191,-458 104,-458"/>
<text text-anchor="start" x="121" y="-466" font-family="Linux libertine" font-size="10.00">(64, 9216) </text>
</g>
<!-- 5&#45;&gt;6 -->
<g id="edge6" class="edge">
<title>5&#45;&gt;6</title>
<path fill="none" stroke="black" d="M100,-535.63C100,-527.82 100,-518.73 100,-510.18"/>
<polygon fill="black" stroke="black" points="103.5,-510.16 100,-500.16 96.5,-510.16 103.5,-510.16"/>
</g>
<!-- 7 -->
<g id="node8" class="node">
<title>7</title>
<polygon fill="#c1ffc1" stroke="transparent" points="180.5,-422 19.5,-422 19.5,-380 180.5,-380 180.5,-422"/>
<polygon fill="none" stroke="black" points="20,-380 20,-422 70,-422 70,-380 20,-380"/>
<text text-anchor="start" x="25" y="-404" font-family="Linux libertine" font-size="10.00">Dropout</text>
<text text-anchor="start" x="26.5" y="-393" font-family="Linux libertine" font-size="10.00">depth:1</text>
<polygon fill="none" stroke="black" points="70,-401 70,-422 118,-422 118,-401 70,-401"/>
<text text-anchor="start" x="80" y="-409" font-family="Linux libertine" font-size="10.00">input:</text>
<polygon fill="none" stroke="black" points="118,-401 118,-422 181,-422 181,-401 118,-401"/>
<text text-anchor="start" x="123" y="-409" font-family="Linux libertine" font-size="10.00">(64, 9216) </text>
<polygon fill="none" stroke="black" points="70,-380 70,-401 118,-401 118,-380 70,-380"/>
<text text-anchor="start" x="75" y="-388" font-family="Linux libertine" font-size="10.00">output: </text>
<polygon fill="none" stroke="black" points="118,-380 118,-401 181,-401 181,-380 118,-380"/>
<text text-anchor="start" x="123" y="-388" font-family="Linux libertine" font-size="10.00">(64, 9216) </text>
</g>
<!-- 6&#45;&gt;7 -->
<g id="edge7" class="edge">
<title>6&#45;&gt;7</title>
<path fill="none" stroke="black" d="M100,-457.63C100,-449.82 100,-440.73 100,-432.18"/>
<polygon fill="black" stroke="black" points="103.5,-432.16 100,-422.16 96.5,-432.16 103.5,-432.16"/>
</g>
<!-- 8 -->
<g id="node9" class="node">
<title>8</title>
<polygon fill="#c1ffc1" stroke="transparent" points="179,-344 21,-344 21,-302 179,-302 179,-344"/>
<polygon fill="none" stroke="black" points="21,-302 21,-344 68,-344 68,-302 21,-302"/>
<text text-anchor="start" x="29" y="-326" font-family="Linux libertine" font-size="10.00">Linear</text>
<text text-anchor="start" x="26" y="-315" font-family="Linux libertine" font-size="10.00">depth:1</text>
<polygon fill="none" stroke="black" points="68,-323 68,-344 116,-344 116,-323 68,-323"/>
<text text-anchor="start" x="78" y="-331" font-family="Linux libertine" font-size="10.00">input:</text>
<polygon fill="none" stroke="black" points="116,-323 116,-344 179,-344 179,-323 116,-323"/>
<text text-anchor="start" x="121" y="-331" font-family="Linux libertine" font-size="10.00">(64, 9216) </text>
<polygon fill="none" stroke="black" points="68,-302 68,-323 116,-323 116,-302 68,-302"/>
<text text-anchor="start" x="73" y="-310" font-family="Linux libertine" font-size="10.00">output: </text>
<polygon fill="none" stroke="black" points="116,-302 116,-323 179,-323 179,-302 116,-302"/>
<text text-anchor="start" x="124" y="-310" font-family="Linux libertine" font-size="10.00">(64, 128) </text>
</g>
<!-- 7&#45;&gt;8 -->
<g id="edge8" class="edge">
<title>7&#45;&gt;8</title>
<path fill="none" stroke="black" d="M100,-379.63C100,-371.82 100,-362.73 100,-354.18"/>
<polygon fill="black" stroke="black" points="103.5,-354.16 100,-344.16 96.5,-354.16 103.5,-354.16"/>
</g>
<!-- 9 -->
<g id="node10" class="node">
<title>9</title>
<polygon fill="aliceblue" stroke="transparent" points="176,-266 24,-266 24,-224 176,-224 176,-266"/>
<polygon fill="none" stroke="black" points="24,-224 24,-266 71,-266 71,-224 24,-224"/>
<text text-anchor="start" x="38" y="-248" font-family="Linux libertine" font-size="10.00">relu</text>
<text text-anchor="start" x="29" y="-237" font-family="Linux libertine" font-size="10.00">depth:1</text>
<polygon fill="none" stroke="black" points="71,-245 71,-266 119,-266 119,-245 71,-245"/>
<text text-anchor="start" x="81" y="-253" font-family="Linux libertine" font-size="10.00">input:</text>
<polygon fill="none" stroke="black" points="119,-245 119,-266 176,-266 176,-245 119,-245"/>
<text text-anchor="start" x="124" y="-253" font-family="Linux libertine" font-size="10.00">(64, 128) </text>
<polygon fill="none" stroke="black" points="71,-224 71,-245 119,-245 119,-224 71,-224"/>
<text text-anchor="start" x="76" y="-232" font-family="Linux libertine" font-size="10.00">output: </text>
<polygon fill="none" stroke="black" points="119,-224 119,-245 176,-245 176,-224 119,-224"/>
<text text-anchor="start" x="124" y="-232" font-family="Linux libertine" font-size="10.00">(64, 128) </text>
</g>
<!-- 8&#45;&gt;9 -->
<g id="edge9" class="edge">
<title>8&#45;&gt;9</title>
<path fill="none" stroke="black" d="M100,-301.63C100,-293.82 100,-284.73 100,-276.18"/>
<polygon fill="black" stroke="black" points="103.5,-276.16 100,-266.16 96.5,-276.16 103.5,-276.16"/>
</g>
<!-- 10 -->
<g id="node11" class="node">
<title>10</title>
<polygon fill="#c1ffc1" stroke="transparent" points="177.5,-188 22.5,-188 22.5,-146 177.5,-146 177.5,-188"/>
<polygon fill="none" stroke="black" points="23,-146 23,-188 73,-188 73,-146 23,-146"/>
<text text-anchor="start" x="28" y="-170" font-family="Linux libertine" font-size="10.00">Dropout</text>
<text text-anchor="start" x="29.5" y="-159" font-family="Linux libertine" font-size="10.00">depth:1</text>
<polygon fill="none" stroke="black" points="73,-167 73,-188 121,-188 121,-167 73,-167"/>
<text text-anchor="start" x="83" y="-175" font-family="Linux libertine" font-size="10.00">input:</text>
<polygon fill="none" stroke="black" points="121,-167 121,-188 178,-188 178,-167 121,-167"/>
<text text-anchor="start" x="126" y="-175" font-family="Linux libertine" font-size="10.00">(64, 128) </text>
<polygon fill="none" stroke="black" points="73,-146 73,-167 121,-167 121,-146 73,-146"/>
<text text-anchor="start" x="78" y="-154" font-family="Linux libertine" font-size="10.00">output: </text>
<polygon fill="none" stroke="black" points="121,-146 121,-167 178,-167 178,-146 121,-146"/>
<text text-anchor="start" x="126" y="-154" font-family="Linux libertine" font-size="10.00">(64, 128) </text>
</g>
<!-- 9&#45;&gt;10 -->
<g id="edge10" class="edge">
<title>9&#45;&gt;10</title>
<path fill="none" stroke="black" d="M100,-223.63C100,-215.82 100,-206.73 100,-198.18"/>
<polygon fill="black" stroke="black" points="103.5,-198.16 100,-188.16 96.5,-198.16 103.5,-198.16"/>
</g>
<!-- 11 -->
<g id="node12" class="node">
<title>11</title>
<polygon fill="#c1ffc1" stroke="transparent" points="176,-110 24,-110 24,-68 176,-68 176,-110"/>
<polygon fill="none" stroke="black" points="24,-68 24,-110 71,-110 71,-68 24,-68"/>
<text text-anchor="start" x="32" y="-92" font-family="Linux libertine" font-size="10.00">Linear</text>
<text text-anchor="start" x="29" y="-81" font-family="Linux libertine" font-size="10.00">depth:1</text>
<polygon fill="none" stroke="black" points="71,-89 71,-110 119,-110 119,-89 71,-89"/>
<text text-anchor="start" x="81" y="-97" font-family="Linux libertine" font-size="10.00">input:</text>
<polygon fill="none" stroke="black" points="119,-89 119,-110 176,-110 176,-89 119,-89"/>
<text text-anchor="start" x="124" y="-97" font-family="Linux libertine" font-size="10.00">(64, 128) </text>
<polygon fill="none" stroke="black" points="71,-68 71,-89 119,-89 119,-68 71,-68"/>
<text text-anchor="start" x="76" y="-76" font-family="Linux libertine" font-size="10.00">output: </text>
<polygon fill="none" stroke="black" points="119,-68 119,-89 176,-89 176,-68 119,-68"/>
<text text-anchor="start" x="127" y="-76" font-family="Linux libertine" font-size="10.00">(64, 10) </text>
</g>
<!-- 10&#45;&gt;11 -->
<g id="edge11" class="edge">
<title>10&#45;&gt;11</title>
<path fill="none" stroke="black" d="M100,-145.63C100,-137.82 100,-128.73 100,-120.18"/>
<polygon fill="black" stroke="black" points="103.5,-120.16 100,-110.16 96.5,-120.16 103.5,-120.16"/>
</g>
<!-- 12 -->
<g id="node13" class="node">
<title>12</title>
<polygon fill="lightyellow" stroke="transparent" points="162.5,-32 37.5,-32 37.5,0 162.5,0 162.5,-32"/>
<polygon fill="none" stroke="black" points="38,0 38,-32 115,-32 115,0 38,0"/>
<text text-anchor="start" x="43" y="-19" font-family="Linux libertine" font-size="10.00">output&#45;tensor</text>
<text text-anchor="start" x="58" y="-8" font-family="Linux libertine" font-size="10.00">depth:0</text>
<polygon fill="none" stroke="black" points="115,0 115,-32 163,-32 163,0 115,0"/>
<text text-anchor="start" x="120" y="-13.5" font-family="Linux libertine" font-size="10.00">(64, 10)</text>
</g>
<!-- 11&#45;&gt;12 -->
<g id="edge12" class="edge">
<title>11&#45;&gt;12</title>
<path fill="none" stroke="black" d="M100,-67.84C100,-59.89 100,-50.66 100,-42.26"/>
<polygon fill="black" stroke="black" points="103.5,-42.24 100,-32.24 96.5,-42.24 103.5,-42.24"/>
</g>
</g>
</svg>
